{
 "cells": [
  {
   "cell_type": "markdown",
   "metadata": {},
   "source": [
    "# Link to application in Coursera"
   ]
  },
  {
   "cell_type": "markdown",
   "metadata": {},
   "source": [
    "https://cnepxqxy.labs.coursera.org/notebooks/Exercise%203.ipynb"
   ]
  },
  {
   "cell_type": "markdown",
   "metadata": {},
   "source": [
    "# Downloading ffmpeg"
   ]
  },
  {
   "cell_type": "markdown",
   "metadata": {},
   "source": [
    "Taken from Coursera Lab"
   ]
  },
  {
   "cell_type": "code",
   "execution_count": 1,
   "metadata": {},
   "outputs": [
    {
     "name": "stdout",
     "output_type": "stream",
     "text": [
      "/usr/bin/ffmpeg\r\n"
     ]
    }
   ],
   "source": [
    "# Download latest FFmpeg static build.  \n",
    "exist = !which ffmpeg\n",
    "if not exist:\n",
    "  !curl https://johnvansickle.com/ffmpeg/releases/ffmpeg-release-amd64-static.tar.xz -o ffmpeg.tar.xz \\\n",
    "     && tar -xf ffmpeg.tar.xz && rm ffmpeg.tar.xz\n",
    "  ffmdir = !find . -iname ffmpeg-*-static\n",
    "  path = %env PATH\n",
    "  path = path + ':' + ffmdir[0]\n",
    "  %env PATH $path\n",
    "\n",
    "!which ffmpeg"
   ]
  },
  {
   "cell_type": "markdown",
   "metadata": {},
   "source": [
    "# Running ffprobe for all film files"
   ]
  },
  {
   "cell_type": "markdown",
   "metadata": {},
   "source": [
    "**This is to check that ffprobe can be run and check the format of the output of running ffprobe.**"
   ]
  },
  {
   "cell_type": "code",
   "execution_count": 17,
   "metadata": {},
   "outputs": [
    {
     "name": "stdout",
     "output_type": "stream",
     "text": [
      "Input #0, mov,mp4,m4a,3gp,3g2,mj2, from 'Exercise3_Films/Last_man_on_earth_1964.mov':\n",
      "  Metadata:\n",
      "    major_brand     : qt  \n",
      "    minor_version   : 537199360\n",
      "    compatible_brands: qt  \n",
      "    creation_time   : 2021-08-02T18:38:19.000000Z\n",
      "  Duration: 00:00:20.02, start: 0.000000, bitrate: 11240 kb/s\n",
      "    Stream #0:0(eng): Video: prores (apcs / 0x73637061), yuv422p10le(smpte170m/smpte170m/bt709, progressive), 640x360, 9285 kb/s, SAR 1:1 DAR 16:9, 23.98 fps, 23.98 tbr, 24k tbn, 24k tbc (default)\n",
      "    Metadata:\n",
      "      creation_time   : 2021-08-02T18:38:19.000000Z\n",
      "      handler_name    : Apple Alias Data Handler\n",
      "      encoder         : Apple ProRes 422 LT\n",
      "      timecode        : 00:51:43:11\n",
      "    Stream #0:1(eng): Audio: pcm_s16le (sowt / 0x74776F73), 48000 Hz, stereo, s16, 1536 kb/s (default)\n",
      "    Metadata:\n",
      "      creation_time   : 2021-08-02T18:38:19.000000Z\n",
      "      handler_name    : Apple Alias Data Handler\n",
      "      timecode        : 00:51:43:11\n",
      "    Stream #0:2(eng): Data: none (tmcd / 0x64636D74), 0 kb/s (default)\n",
      "    Metadata:\n",
      "      creation_time   : 2021-08-02T18:38:19.000000Z\n",
      "      handler_name    : Apple Alias Data Handler\n",
      "      timecode        : 00:51:43:11\n",
      "\u001b[0;33mUnsupported codec with id 0 for input stream 2\n",
      "\u001b[0m"
     ]
    }
   ],
   "source": [
    "!ffprobe -hide_banner Exercise3_Films/Last_man_on_earth_1964.mov"
   ]
  },
  {
   "cell_type": "code",
   "execution_count": 21,
   "metadata": {},
   "outputs": [
    {
     "name": "stdout",
     "output_type": "stream",
     "text": [
      "Input #0, mov,mp4,m4a,3gp,3g2,mj2, from 'Exercise3_Films/Cosmos_War_of_the_Planets.mp4':\r\n",
      "  Metadata:\r\n",
      "    major_brand     : mp42\r\n",
      "    minor_version   : 0\r\n",
      "    compatible_brands: mp42mp41\r\n",
      "    creation_time   : 2021-08-02T19:15:48.000000Z\r\n",
      "  Duration: 00:00:20.05, start: 0.000000, bitrate: 3309 kb/s\r\n",
      "    Stream #0:0(eng): Video: h264 (Main) (avc1 / 0x31637661), yuv420p, 628x354 [SAR 1:1 DAR 314:177], 2989 kb/s, 29.97 fps, 29.97 tbr, 30k tbn, 59.94 tbc (default)\r\n",
      "    Metadata:\r\n",
      "      creation_time   : 2021-08-02T19:15:48.000000Z\r\n",
      "      handler_name    : Alias Data Handler\r\n",
      "      encoder         : AVC Coding\r\n",
      "    Stream #0:1(eng): Audio: aac (LC) (mp4a / 0x6134706D), 48000 Hz, stereo, fltp, 317 kb/s (default)\r\n",
      "    Metadata:\r\n",
      "      creation_time   : 2021-08-02T19:15:48.000000Z\r\n",
      "      handler_name    : Alias Data Handler\r\n"
     ]
    }
   ],
   "source": [
    "!ffprobe -hide_banner Exercise3_Films/Cosmos_War_of_the_Planets.mp4"
   ]
  },
  {
   "cell_type": "code",
   "execution_count": 8,
   "metadata": {},
   "outputs": [
    {
     "name": "stdout",
     "output_type": "stream",
     "text": [
      "Input #0, mov,mp4,m4a,3gp,3g2,mj2, from 'Exercise3_Films/The_Hill_Gang_Rides_Again.mp4':\r\n",
      "  Metadata:\r\n",
      "    major_brand     : mp42\r\n",
      "    minor_version   : 0\r\n",
      "    compatible_brands: mp42mp41\r\n",
      "    creation_time   : 2021-08-02T18:46:51.000000Z\r\n",
      "  Duration: 00:00:20.04, start: 0.000000, bitrate: 7784 kb/s\r\n",
      "    Stream #0:0(eng): Video: h264 (Main) (avc1 / 0x31637661), yuv420p, 640x360 [SAR 1:1 DAR 16:9], 7537 kb/s, 25 fps, 25 tbr, 25k tbn, 50 tbc (default)\r\n",
      "    Metadata:\r\n",
      "      creation_time   : 2021-08-02T18:46:51.000000Z\r\n",
      "      handler_name    : Alias Data Handler\r\n",
      "      encoder         : AVC Coding\r\n",
      "    Stream #0:1(eng): Audio: aac (LC) (mp4a / 0x6134706D), 44100 Hz, stereo, fltp, 253 kb/s (default)\r\n",
      "    Metadata:\r\n",
      "      creation_time   : 2021-08-02T18:46:51.000000Z\r\n",
      "      handler_name    : Alias Data Handler\r\n"
     ]
    }
   ],
   "source": [
    "!ffprobe -hide_banner Exercise3_Films/The_Hill_Gang_Rides_Again.mp4"
   ]
  },
  {
   "cell_type": "code",
   "execution_count": 9,
   "metadata": {},
   "outputs": [
    {
     "name": "stdout",
     "output_type": "stream",
     "text": [
      "Input #0, mov,mp4,m4a,3gp,3g2,mj2, from 'Exercise3_Films/Voyage_to_the_Planet_of_Prehistoric_Women.mp4':\r\n",
      "  Metadata:\r\n",
      "    major_brand     : mp42\r\n",
      "    minor_version   : 0\r\n",
      "    compatible_brands: mp42mp41\r\n",
      "    creation_time   : 2021-08-02T19:26:10.000000Z\r\n",
      "  Duration: 00:00:20.09, start: 0.000000, bitrate: 8337 kb/s\r\n",
      "    Stream #0:0(eng): Video: hevc (Main) (hvc1 / 0x31637668), yuv420p(tv, bt709), 640x360 [SAR 1:1 DAR 16:9], 8038 kb/s, 29.97 fps, 29.97 tbr, 30k tbn, 29.97 tbc (default)\r\n",
      "    Metadata:\r\n",
      "      creation_time   : 2021-08-02T19:26:10.000000Z\r\n",
      "      handler_name    : Alias Data Handler\r\n",
      "      encoder         : HEVC Coding\r\n",
      "    Stream #0:1(eng): Audio: mp3 (mp4a / 0x6134706D), 48000 Hz, stereo, s16p, 320 kb/s (default)\r\n",
      "    Metadata:\r\n",
      "      creation_time   : 2021-08-02T19:26:10.000000Z\r\n",
      "      handler_name    : Alias Data Handler\r\n"
     ]
    }
   ],
   "source": [
    "!ffprobe -hide_banner Exercise3_Films/Voyage_to_the_Planet_of_Prehistoric_Women.mp4"
   ]
  },
  {
   "cell_type": "code",
   "execution_count": 12,
   "metadata": {
    "scrolled": true
   },
   "outputs": [
    {
     "name": "stdout",
     "output_type": "stream",
     "text": [
      "Input #0, avi, from 'Exercise3_Films/The_Gun_and_the_Pulpit.avi':\r\n",
      "  Duration: 00:00:20.00, start: 0.000000, bitrate: 88809 kb/s\r\n",
      "    Stream #0:0: Video: rawvideo (IYUV / 0x56555949), yuv420p, 720x404, 87438 kb/s, 25 fps, 25 tbr, 25 tbn, 25 tbc\r\n",
      "    Stream #0:1: Audio: pcm_s16le ([1][0][0][0] / 0x0001), 48000 Hz, 2 channels, s16, 1536 kb/s\r\n"
     ]
    }
   ],
   "source": [
    "!ffprobe -hide_banner Exercise3_Films/The_Gun_and_the_Pulpit.avi"
   ]
  },
  {
   "cell_type": "markdown",
   "metadata": {},
   "source": [
    "# Functions to check format"
   ]
  },
  {
   "cell_type": "markdown",
   "metadata": {},
   "source": [
    "Some functions will check for the line of string that contains the digital format required to be extracted. These include the video formats, which is contained within \"Stream #0:0\" and audio formats contained within \"Stream #0:1\", as can be seen above and below. The functions can then make use of this and check if the digital formats are accepted. "
   ]
  },
  {
   "cell_type": "code",
   "execution_count": 1,
   "metadata": {},
   "outputs": [],
   "source": [
    "# testing for video format container\n",
    "def testVideoFormat(string, file):\n",
    "    if \"mp4\" in string:\n",
    "        print(\"Video format OK!\")\n",
    "        file.write(\"Video format OK!\" + \"\\n\")\n",
    "    else:\n",
    "        print(\"Video format not correct\")\n",
    "        file.write(\"Video format not correct\" + \"\\n\")\n",
    "\n",
    "# testing for audio format aac\n",
    "def testAudioCodec(op, file):\n",
    "    for i in op:\n",
    "        test = i.strip()\n",
    "        if \"Stream #0:1\" in test:\n",
    "            if \"aac\" not in test:\n",
    "                print(\"Audio codec not correct\")\n",
    "                file.write(\"Audio codec not correct\" + \"\\n\")\n",
    "            else:\n",
    "                print(\"Audio codec OK!\")\n",
    "                file.write(\"Audio codec OK!\" + \"\\n\")\n",
    "                \n",
    "# testing for audio channels stereo\n",
    "def testAudioChannels(op, file):\n",
    "    for i in op:\n",
    "        test = i.strip()\n",
    "        if \"Stream #0:1\" in test:\n",
    "            if \"stereo\" or \"2 channels\" in test: # since stereo can also be known to have 2 channels\n",
    "                print(\"Audio channels OK!\")\n",
    "                file.write(\"Audio channels OK!\" + \"\\n\")\n",
    "            else:\n",
    "                print(\"Audio channels not correct\")\n",
    "                file.write(\"Audio channels not correct\" + \"\\n\")\n",
    "            \n",
    "# testing for video codex h264l, aspect ratio 16:9\n",
    "def testVideoCodec(op, file):\n",
    "    for i in op:\n",
    "        test = i.strip()\n",
    "        if \"Stream #0:0\" in test:\n",
    "            if \"h264\" not in test:\n",
    "                print(\"Video codec not correct\")\n",
    "                file.write(\"Video codec not correct\" + \"\\n\")\n",
    "            else:\n",
    "                print(\"Video codec OK!\")\n",
    "                file.write(\"Video codec OK!\" + \"\\n\")\n",
    "\n",
    "# testing for frame rate 25 fps\n",
    "def testFrameRate(op, file):\n",
    "    for i in op:\n",
    "        test = i.strip()\n",
    "        if \"Stream #0:0\" in test:\n",
    "            if \"25 fps\" not in test:\n",
    "                print(\"Frame rate not correct\")\n",
    "                file.write(\"Frame rate not correct\" + \"\\n\")\n",
    "            else:\n",
    "                print(\"Frame rate OK!\")\n",
    "                file.write(\"Frame rate OK!\" + \"\\n\")\n",
    "                \n",
    "# testing for aspect ratio 16:9\n",
    "def testAspectRatio(op, file):\n",
    "    for i in op:\n",
    "        test = i.strip()\n",
    "        if \"Stream #0:0\" in test:\n",
    "            if \"16:9\" in test:\n",
    "                print(\"Aspect ratio OK!\")\n",
    "                file.write(\"Aspect ratio OK!\" + \"\\n\")\n",
    "            else:\n",
    "                print(\"Aspect ratio not correct\")\n",
    "                file.write(\"Aspect ratio not correct\" + \"\\n\")\n",
    "                \n",
    "# testing for video resolution 640x360\n",
    "def testResolution(op, file):\n",
    "    for i in op:\n",
    "        test = i.strip()\n",
    "        if \"Stream #0:0\" in test:\n",
    "            if \"640x360\" in test:\n",
    "                print(\"Resolution OK!\")\n",
    "                file.write(\"Resolution OK!\" + \"\\n\")\n",
    "            else:\n",
    "                print(\"Resolution not correct\")\n",
    "                file.write(\"Resolution not correct\" + \"\\n\")\n",
    "            \n",
    "# testing for video bit rate\n",
    "def testVideoBitRate(op, file):\n",
    "    for i in op:\n",
    "        test = i.strip()\n",
    "        if \"Stream #0:0\" in test:\n",
    "            sections = test.split(\",\")\n",
    "            for s in sections:\n",
    "                s = s.strip()\n",
    "                if \"kb/s\" in s:\n",
    "                    kbs = s.split(\"kb/s\")                    \n",
    "                    kbs = kbs[0].strip()\n",
    "    # since we require this digital format to be compared in mb/s, we convert it from kb/s\n",
    "    kbsint = int(kbs)\n",
    "    mbs = kbsint/1000\n",
    "    if mbs < 2 or mbs > 5:\n",
    "        print(\"Video bit rate not correct\")\n",
    "        file.write(\"Video bit rate not correct\" + \"\\n\")\n",
    "    else:\n",
    "        print(\"Video bit rate OK!\")\n",
    "        file.write(\"Video bit rate OK!\" + \"\\n\")\n",
    "        \n",
    "# testing for audio bit rate 256kb/s\n",
    "def testAudioBitRate(op, file):\n",
    "    for i in op:\n",
    "        test = i.strip()\n",
    "        if \"Stream #0:1\" in test:\n",
    "            sections = test.split(\",\")\n",
    "            for s in sections:\n",
    "                s = s.strip()\n",
    "                if \"kb/s\" in s:\n",
    "                    kbs = s.split(\"kb/s\")                  \n",
    "                    kbs = kbs[0].strip()\n",
    "    kbsint = int(kbs)\n",
    "    if kbsint > 256:\n",
    "        print(\"Audio bit rate not correct\")\n",
    "        file.write(\"Audio bit rate not correct\" + \"\\n\")\n",
    "    else:\n",
    "        print(\"Audio bit rate OK!\")\n",
    "        file.write(\"Audio bit rate OK!\" + \"\\n\")\n",
    "\n",
    "# compiling all functions into one to generate report.txt\n",
    "def testing(string, op, file):\n",
    "    testVideoFormat(string, file)\n",
    "    testVideoCodec(op, file)\n",
    "    testAudioCodec(op, file)\n",
    "    testFrameRate(op, file)\n",
    "    testAspectRatio(op, file)\n",
    "    testResolution(op, file)\n",
    "    testVideoBitRate(op, file)\n",
    "    testAudioBitRate(op, file)\n",
    "    testAudioChannels(op, file)\n",
    "    file.write(\"-------------------------------\" + \"\\n\")"
   ]
  },
  {
   "cell_type": "markdown",
   "metadata": {},
   "source": [
    "# Conversion function"
   ]
  },
  {
   "cell_type": "markdown",
   "metadata": {},
   "source": [
    "Function created to automate conversion of incorrect formats"
   ]
  },
  {
   "cell_type": "code",
   "execution_count": 2,
   "metadata": {},
   "outputs": [],
   "source": [
    "# converts files to the correct format\n",
    "def convert(inputfilepath):\n",
    "    # splitting the input file path to direct the new folder\n",
    "    slash = inputfilepath.split('/')\n",
    "    outputfolder = slash[0] + \"_formatOK/\" + slash[1]\n",
    "    outputfilepath = outputfolder[:-4] + \"_formatOK\" + \".mp4\"\n",
    "    print(outputfilepath)\n",
    "    # conversion\n",
    "    !ffmpeg -hide_banner -y -i $inputfilepath -c:v h264 -c:a aac -b:v 3M -aspect 16:9 -ac 2 -r 25 -s 640x360 -b:a 256k $outputfilepath"
   ]
  },
  {
   "cell_type": "markdown",
   "metadata": {},
   "source": [
    "# Automated generation of report in TXT and conversion"
   ]
  },
  {
   "cell_type": "markdown",
   "metadata": {},
   "source": [
    "This step reads in the files and creates a TXT file called report.txt which specifies which fields they do or do not adhere to. Next, the convert function is called to convert the films into the digital format specified, and the new files are saved under the folder named \"Exercise3_Films_formatOK\"."
   ]
  },
  {
   "cell_type": "code",
   "execution_count": 3,
   "metadata": {},
   "outputs": [
    {
     "name": "stdout",
     "output_type": "stream",
     "text": [
      "Cosmos_War_of_the_Planets.mp4\n",
      "Exercise3_Films_formatOK/Cosmos_War_of_the_Planets_formatOK.mp4\n",
      "Input #0, mov,mp4,m4a,3gp,3g2,mj2, from 'Exercise3_Films/Cosmos_War_of_the_Planets.mp4':\n",
      "  Metadata:\n",
      "    major_brand     : mp42\n",
      "    minor_version   : 0\n",
      "    compatible_brands: mp42mp41\n",
      "    creation_time   : 2021-08-02T19:15:48.000000Z\n",
      "  Duration: 00:00:20.05, start: 0.000000, bitrate: 3309 kb/s\n",
      "    Stream #0:0(eng): Video: h264 (Main) (avc1 / 0x31637661), yuv420p, 628x354 [SAR 1:1 DAR 314:177], 2989 kb/s, 29.97 fps, 29.97 tbr, 30k tbn, 59.94 tbc (default)\n",
      "    Metadata:\n",
      "      creation_time   : 2021-08-02T19:15:48.000000Z\n",
      "      handler_name    : Alias Data Handler\n",
      "      encoder         : AVC Coding\n",
      "    Stream #0:1(eng): Audio: aac (LC) (mp4a / 0x6134706D), 48000 Hz, stereo, fltp, 317 kb/s (default)\n",
      "    Metadata:\n",
      "      creation_time   : 2021-08-02T19:15:48.000000Z\n",
      "      handler_name    : Alias Data Handler\n",
      "Stream mapping:\n",
      "  Stream #0:0 -> #0:0 (h264 (native) -> h264 (libx264))\n",
      "  Stream #0:1 -> #0:1 (aac (native) -> aac (native))\n",
      "Press [q] to stop, [?] for help\n",
      "\u001b[1;36m[libx264 @ 0x55f5059ad420] \u001b[0musing SAR=1/1\n",
      "\u001b[1;36m[libx264 @ 0x55f5059ad420] \u001b[0musing cpu capabilities: MMX2 SSE2Fast SSSE3 SSE4.2 AVX FMA3 BMI2 AVX2 AVX512\n",
      "\u001b[1;36m[libx264 @ 0x55f5059ad420] \u001b[0mprofile High, level 3.0\n",
      "\u001b[1;36m[libx264 @ 0x55f5059ad420] \u001b[0m264 - core 152 r2854 e9a5903 - H.264/MPEG-4 AVC codec - Copyleft 2003-2017 - http://www.videolan.org/x264.html - options: cabac=1 ref=3 deblock=1:0:0 analyse=0x3:0x113 me=hex subme=7 psy=1 psy_rd=1.00:0.00 mixed_ref=1 me_range=16 chroma_me=1 trellis=1 8x8dct=1 cqm=0 deadzone=21,11 fast_pskip=1 chroma_qp_offset=-2 threads=11 lookahead_threads=1 sliced_threads=0 nr=0 decimate=1 interlaced=0 bluray_compat=0 constrained_intra=0 bframes=3 b_pyramid=2 b_adapt=1 b_bias=0 direct=1 weightb=1 open_gop=0 weightp=2 keyint=250 keyint_min=25 scenecut=40 intra_refresh=0 rc_lookahead=40 rc=abr mbtree=1 bitrate=3000 ratetol=1.0 qcomp=0.60 qpmin=0 qpmax=69 qpstep=4 ip_ratio=1.40 aq=1:1.00\n",
      "Output #0, mp4, to 'Exercise3_Films_formatOK/Cosmos_War_of_the_Planets_formatOK.mp4':\n",
      "  Metadata:\n",
      "    major_brand     : mp42\n",
      "    minor_version   : 0\n",
      "    compatible_brands: mp42mp41\n",
      "    encoder         : Lavf57.83.100\n",
      "    Stream #0:0(eng): Video: h264 (libx264) (avc1 / 0x31637661), yuv420p, 640x360 [SAR 1:1 DAR 16:9], q=-1--1, 3000 kb/s, 25 fps, 12800 tbn, 25 tbc (default)\n",
      "    Metadata:\n",
      "      creation_time   : 2021-08-02T19:15:48.000000Z\n",
      "      handler_name    : Alias Data Handler\n",
      "      encoder         : Lavc57.107.100 libx264\n",
      "    Side data:\n",
      "      cpb: bitrate max/min/avg: 0/0/3000000 buffer size: 0 vbv_delay: -1\n",
      "    Stream #0:1(eng): Audio: aac (LC) (mp4a / 0x6134706D), 48000 Hz, stereo, fltp, 256 kb/s (default)\n",
      "    Metadata:\n",
      "      creation_time   : 2021-08-02T19:15:48.000000Z\n",
      "      handler_name    : Alias Data Handler\n",
      "      encoder         : Lavc57.107.100 aac\n",
      "\u001b[0;33mPast duration 0.663322 too large\n",
      "\u001b[0m\u001b[0;33mPast duration 0.829155 too large\n",
      "\u001b[0m\u001b[0;33mPast duration 0.994987 too large\n",
      "frame=  502 fps= 42 q=-1.0 Lsize=    7915kB time=00:00:20.03 bitrate=3236.7kbits/s dup=0 drop=98 speed=1.69x       \n",
      "video:7297kB audio:601kB subtitle:0kB other streams:0kB global headers:0kB muxing overhead: 0.206294%\n",
      "\u001b[1;36m[libx264 @ 0x55f5059ad420] \u001b[0mframe I:3     Avg QP: 9.32  size: 40507\n",
      "\u001b[1;36m[libx264 @ 0x55f5059ad420] \u001b[0mframe P:127   Avg QP: 9.99  size: 31375\n",
      "\u001b[1;36m[libx264 @ 0x55f5059ad420] \u001b[0mframe B:372   Avg QP:12.97  size:  9047\n",
      "\u001b[1;36m[libx264 @ 0x55f5059ad420] \u001b[0mconsecutive B-frames:  1.0%  0.4%  0.6% 98.0%\n",
      "\u001b[1;36m[libx264 @ 0x55f5059ad420] \u001b[0mmb I  I16..4: 10.5% 64.5% 25.0%\n",
      "\u001b[1;36m[libx264 @ 0x55f5059ad420] \u001b[0mmb P  I16..4:  4.1% 28.1%  8.2%  P16..4: 14.4% 25.7% 18.8%  0.0%  0.0%    skip: 0.7%\n",
      "\u001b[1;36m[libx264 @ 0x55f5059ad420] \u001b[0mmb B  I16..4:  0.8%  3.4%  0.9%  B16..8: 32.6% 28.2% 12.3%  direct:11.6%  skip:10.3%  L0:42.6% L1:38.2% BI:19.2%\n",
      "\u001b[1;36m[libx264 @ 0x55f5059ad420] \u001b[0mfinal ratefactor: 10.03\n",
      "\u001b[1;36m[libx264 @ 0x55f5059ad420] \u001b[0m8x8 transform intra:68.7% inter:46.3%\n",
      "\u001b[1;36m[libx264 @ 0x55f5059ad420] \u001b[0mcoded y,uvDC,uvAC intra: 89.0% 97.7% 96.9% inter: 51.1% 63.0% 32.9%\n",
      "\u001b[1;36m[libx264 @ 0x55f5059ad420] \u001b[0mi16 v,h,dc,p: 28% 17% 24% 31%\n",
      "\u001b[1;36m[libx264 @ 0x55f5059ad420] \u001b[0mi8 v,h,dc,ddl,ddr,vr,hd,vl,hu: 25% 25% 23%  3%  4%  5%  5%  4%  6%\n",
      "\u001b[1;36m[libx264 @ 0x55f5059ad420] \u001b[0mi4 v,h,dc,ddl,ddr,vr,hd,vl,hu: 35% 21% 16%  4%  5%  5%  4%  4%  4%\n",
      "\u001b[1;36m[libx264 @ 0x55f5059ad420] \u001b[0mi8c dc,h,v,p: 51% 22% 19%  8%\n",
      "\u001b[1;36m[libx264 @ 0x55f5059ad420] \u001b[0mWeighted P-Frames: Y:11.0% UV:4.7%\n",
      "\u001b[1;36m[libx264 @ 0x55f5059ad420] \u001b[0mref P L0: 59.7% 14.1% 19.2%  6.3%  0.7%\n",
      "\u001b[1;36m[libx264 @ 0x55f5059ad420] \u001b[0mref B L0: 93.7%  5.2%  1.1%\n",
      "\u001b[1;36m[libx264 @ 0x55f5059ad420] \u001b[0mref B L1: 98.3%  1.7%\n",
      "\u001b[1;36m[libx264 @ 0x55f5059ad420] \u001b[0mkb/s:2976.76\n",
      "\u001b[1;36m[aac @ 0x55f505ae6f00] \u001b[0mQavg: 42622.535\n",
      "Video format OK!\n",
      "Video codec OK!\n",
      "Audio codec OK!\n",
      "Frame rate not correct\n",
      "Aspect ratio not correct\n",
      "Resolution not correct\n",
      "Video bit rate OK!\n",
      "Audio bit rate not correct\n",
      "Audio channels OK!\n",
      "-------------------------------\n",
      "Last_man_on_earth_1964.mov\n",
      "Exercise3_Films_formatOK/Last_man_on_earth_1964_formatOK.mp4\n",
      "Input #0, mov,mp4,m4a,3gp,3g2,mj2, from 'Exercise3_Films/Last_man_on_earth_1964.mov':\n",
      "  Metadata:\n",
      "    major_brand     : qt  \n",
      "    minor_version   : 537199360\n",
      "    compatible_brands: qt  \n",
      "    creation_time   : 2021-08-02T18:38:19.000000Z\n",
      "  Duration: 00:00:20.02, start: 0.000000, bitrate: 11240 kb/s\n",
      "    Stream #0:0(eng): Video: prores (apcs / 0x73637061), yuv422p10le(smpte170m/smpte170m/bt709, progressive), 640x360, 9285 kb/s, SAR 1:1 DAR 16:9, 23.98 fps, 23.98 tbr, 24k tbn, 24k tbc (default)\n",
      "    Metadata:\n",
      "      creation_time   : 2021-08-02T18:38:19.000000Z\n",
      "      handler_name    : Apple Alias Data Handler\n",
      "      encoder         : Apple ProRes 422 LT\n",
      "      timecode        : 00:51:43:11\n",
      "    Stream #0:1(eng): Audio: pcm_s16le (sowt / 0x74776F73), 48000 Hz, stereo, s16, 1536 kb/s (default)\n",
      "    Metadata:\n",
      "      creation_time   : 2021-08-02T18:38:19.000000Z\n",
      "      handler_name    : Apple Alias Data Handler\n",
      "      timecode        : 00:51:43:11\n",
      "    Stream #0:2(eng): Data: none (tmcd / 0x64636D74), 0 kb/s (default)\n",
      "    Metadata:\n",
      "      creation_time   : 2021-08-02T18:38:19.000000Z\n",
      "      handler_name    : Apple Alias Data Handler\n",
      "      timecode        : 00:51:43:11\n",
      "Stream mapping:\n",
      "  Stream #0:0 -> #0:0 (prores (native) -> h264 (libx264))\n",
      "  Stream #0:1 -> #0:1 (pcm_s16le (native) -> aac (native))\n",
      "Press [q] to stop, [?] for help\n",
      "\u001b[1;36m[libx264 @ 0x55bf3f93a320] \u001b[0musing SAR=1/1\n",
      "\u001b[1;36m[libx264 @ 0x55bf3f93a320] \u001b[0musing cpu capabilities: MMX2 SSE2Fast SSSE3 SSE4.2 AVX FMA3 BMI2 AVX2 AVX512\n",
      "\u001b[1;36m[libx264 @ 0x55bf3f93a320] \u001b[0mprofile High 4:2:2, level 3.0, 4:2:2 8-bit\n",
      "\u001b[1;36m[libx264 @ 0x55bf3f93a320] \u001b[0m264 - core 152 r2854 e9a5903 - H.264/MPEG-4 AVC codec - Copyleft 2003-2017 - http://www.videolan.org/x264.html - options: cabac=1 ref=3 deblock=1:0:0 analyse=0x3:0x113 me=hex subme=7 psy=1 psy_rd=1.00:0.00 mixed_ref=1 me_range=16 chroma_me=1 trellis=1 8x8dct=1 cqm=0 deadzone=21,11 fast_pskip=1 chroma_qp_offset=-2 threads=11 lookahead_threads=1 sliced_threads=0 nr=0 decimate=1 interlaced=0 bluray_compat=0 constrained_intra=0 bframes=3 b_pyramid=2 b_adapt=1 b_bias=0 direct=1 weightb=1 open_gop=0 weightp=2 keyint=250 keyint_min=25 scenecut=40 intra_refresh=0 rc_lookahead=40 rc=abr mbtree=1 bitrate=3000 ratetol=1.0 qcomp=0.60 qpmin=0 qpmax=69 qpstep=4 ip_ratio=1.40 aq=1:1.00\n",
      "Output #0, mp4, to 'Exercise3_Films_formatOK/Last_man_on_earth_1964_formatOK.mp4':\n",
      "  Metadata:\n",
      "    major_brand     : qt  \n",
      "    minor_version   : 537199360\n",
      "    compatible_brands: qt  \n",
      "    encoder         : Lavf57.83.100\n",
      "    Stream #0:0(eng): Video: h264 (libx264) (avc1 / 0x31637661), yuv422p(progressive), 640x360 [SAR 1:1 DAR 16:9], q=-1--1, 3000 kb/s, 25 fps, 12800 tbn, 25 tbc (default)\n",
      "    Metadata:\n",
      "      creation_time   : 2021-08-02T18:38:19.000000Z\n",
      "      handler_name    : Apple Alias Data Handler\n",
      "      timecode        : 00:51:43:11\n",
      "      encoder         : Lavc57.107.100 libx264\n",
      "    Side data:\n",
      "      cpb: bitrate max/min/avg: 0/0/3000000 buffer size: 0 vbv_delay: -1\n",
      "    Stream #0:1(eng): Audio: aac (LC) (mp4a / 0x6134706D), 48000 Hz, stereo, fltp, 256 kb/s (default)\n",
      "    Metadata:\n",
      "      creation_time   : 2021-08-02T18:38:19.000000Z\n",
      "      handler_name    : Apple Alias Data Handler\n",
      "      timecode        : 00:51:43:11\n",
      "      encoder         : Lavc57.107.100 aac\n",
      "frame=  500 fps= 47 q=-1.0 Lsize=    8136kB time=00:00:20.03 bitrate=3327.1kbits/s dup=20 drop=0 speed=1.88x    \n",
      "video:7530kB audio:589kB subtitle:0kB other streams:0kB global headers:0kB muxing overhead: 0.205114%\n",
      "\u001b[1;36m[libx264 @ 0x55bf3f93a320] \u001b[0mframe I:6     Avg QP: 6.72  size: 53304\n",
      "\u001b[1;36m[libx264 @ 0x55bf3f93a320] \u001b[0mframe P:129   Avg QP: 8.29  size: 31513\n",
      "\u001b[1;36m[libx264 @ 0x55bf3f93a320] \u001b[0mframe B:365   Avg QP:11.20  size:  9109\n",
      "\u001b[1;36m[libx264 @ 0x55bf3f93a320] \u001b[0mconsecutive B-frames:  1.2%  2.4%  6.0% 90.4%\n",
      "\u001b[1;36m[libx264 @ 0x55bf3f93a320] \u001b[0mmb I  I16..4: 28.3% 43.2% 28.5%\n",
      "\u001b[1;36m[libx264 @ 0x55bf3f93a320] \u001b[0mmb P  I16..4:  0.3% 11.5%  1.8%  P16..4: 34.6% 25.6% 23.2%  0.0%  0.0%    skip: 3.0%\n",
      "\u001b[1;36m[libx264 @ 0x55bf3f93a320] \u001b[0mmb B  I16..4:  0.1%  5.4%  0.1%  B16..8: 32.7% 14.2%  8.9%  direct:14.0%  skip:24.6%  L0:45.6% L1:34.6% BI:19.8%\n",
      "\u001b[1;36m[libx264 @ 0x55bf3f93a320] \u001b[0mfinal ratefactor: 9.60\n",
      "\u001b[1;36m[libx264 @ 0x55bf3f93a320] \u001b[0m8x8 transform intra:84.6% inter:42.9%\n",
      "\u001b[1;36m[libx264 @ 0x55bf3f93a320] \u001b[0mcoded y,uvDC,uvAC intra: 96.8% 98.7% 95.8% inter: 49.0% 6.4% 3.8%\n",
      "\u001b[1;36m[libx264 @ 0x55bf3f93a320] \u001b[0mi16 v,h,dc,p: 52% 11% 29%  8%\n",
      "\u001b[1;36m[libx264 @ 0x55bf3f93a320] \u001b[0mi8 v,h,dc,ddl,ddr,vr,hd,vl,hu: 28% 13% 40%  3%  3%  3%  3%  3%  5%\n",
      "\u001b[1;36m[libx264 @ 0x55bf3f93a320] \u001b[0mi4 v,h,dc,ddl,ddr,vr,hd,vl,hu: 33% 13% 10%  6%  8%  9%  6%  7%  7%\n",
      "\u001b[1;36m[libx264 @ 0x55bf3f93a320] \u001b[0mi8c dc,h,v,p: 96%  0%  4%  0%\n",
      "\u001b[1;36m[libx264 @ 0x55bf3f93a320] \u001b[0mWeighted P-Frames: Y:4.7% UV:0.0%\n",
      "\u001b[1;36m[libx264 @ 0x55bf3f93a320] \u001b[0mref P L0: 58.7%  8.6% 19.8% 12.1%  0.8%\n",
      "\u001b[1;36m[libx264 @ 0x55bf3f93a320] \u001b[0mref B L0: 88.6%  9.3%  2.1%\n",
      "\u001b[1;36m[libx264 @ 0x55bf3f93a320] \u001b[0mref B L1: 96.0%  4.0%\n",
      "\u001b[1;36m[libx264 @ 0x55bf3f93a320] \u001b[0mkb/s:3083.83\n",
      "\u001b[1;36m[aac @ 0x55bf3f93ae00] \u001b[0mQavg: 61693.980\n",
      "Video format not correct\n",
      "Video codec not correct\n",
      "Audio codec not correct\n",
      "Frame rate not correct\n",
      "Aspect ratio OK!\n",
      "Resolution OK!\n",
      "Video bit rate not correct\n",
      "Audio bit rate not correct\n",
      "Audio channels OK!\n",
      "-------------------------------\n",
      "The_Hill_Gang_Rides_Again.mp4\n",
      "Exercise3_Films_formatOK/The_Hill_Gang_Rides_Again_formatOK.mp4\n",
      "Input #0, mov,mp4,m4a,3gp,3g2,mj2, from 'Exercise3_Films/The_Hill_Gang_Rides_Again.mp4':\n",
      "  Metadata:\n",
      "    major_brand     : mp42\n",
      "    minor_version   : 0\n",
      "    compatible_brands: mp42mp41\n",
      "    creation_time   : 2021-08-02T18:46:51.000000Z\n",
      "  Duration: 00:00:20.04, start: 0.000000, bitrate: 7784 kb/s\n",
      "    Stream #0:0(eng): Video: h264 (Main) (avc1 / 0x31637661), yuv420p, 640x360 [SAR 1:1 DAR 16:9], 7537 kb/s, 25 fps, 25 tbr, 25k tbn, 50 tbc (default)\n",
      "    Metadata:\n",
      "      creation_time   : 2021-08-02T18:46:51.000000Z\n",
      "      handler_name    : Alias Data Handler\n",
      "      encoder         : AVC Coding\n",
      "    Stream #0:1(eng): Audio: aac (LC) (mp4a / 0x6134706D), 44100 Hz, stereo, fltp, 253 kb/s (default)\n",
      "    Metadata:\n",
      "      creation_time   : 2021-08-02T18:46:51.000000Z\n",
      "      handler_name    : Alias Data Handler\n",
      "Stream mapping:\n",
      "  Stream #0:0 -> #0:0 (h264 (native) -> h264 (libx264))\n",
      "  Stream #0:1 -> #0:1 (aac (native) -> aac (native))\n",
      "Press [q] to stop, [?] for help\n",
      "\u001b[1;36m[libx264 @ 0x55f8ad6e7960] \u001b[0musing SAR=1/1\n",
      "\u001b[1;36m[libx264 @ 0x55f8ad6e7960] \u001b[0musing cpu capabilities: MMX2 SSE2Fast SSSE3 SSE4.2 AVX FMA3 BMI2 AVX2 AVX512\n",
      "\u001b[1;36m[libx264 @ 0x55f8ad6e7960] \u001b[0mprofile High, level 3.0\n",
      "\u001b[1;36m[libx264 @ 0x55f8ad6e7960] \u001b[0m264 - core 152 r2854 e9a5903 - H.264/MPEG-4 AVC codec - Copyleft 2003-2017 - http://www.videolan.org/x264.html - options: cabac=1 ref=3 deblock=1:0:0 analyse=0x3:0x113 me=hex subme=7 psy=1 psy_rd=1.00:0.00 mixed_ref=1 me_range=16 chroma_me=1 trellis=1 8x8dct=1 cqm=0 deadzone=21,11 fast_pskip=1 chroma_qp_offset=-2 threads=11 lookahead_threads=1 sliced_threads=0 nr=0 decimate=1 interlaced=0 bluray_compat=0 constrained_intra=0 bframes=3 b_pyramid=2 b_adapt=1 b_bias=0 direct=1 weightb=1 open_gop=0 weightp=2 keyint=250 keyint_min=25 scenecut=40 intra_refresh=0 rc_lookahead=40 rc=abr mbtree=1 bitrate=3000 ratetol=1.0 qcomp=0.60 qpmin=0 qpmax=69 qpstep=4 ip_ratio=1.40 aq=1:1.00\n",
      "Output #0, mp4, to 'Exercise3_Films_formatOK/The_Hill_Gang_Rides_Again_formatOK.mp4':\n",
      "  Metadata:\n",
      "    major_brand     : mp42\n",
      "    minor_version   : 0\n",
      "    compatible_brands: mp42mp41\n",
      "    encoder         : Lavf57.83.100\n",
      "    Stream #0:0(eng): Video: h264 (libx264) (avc1 / 0x31637661), yuv420p, 640x360 [SAR 1:1 DAR 16:9], q=-1--1, 3000 kb/s, 25 fps, 12800 tbn, 25 tbc (default)\n",
      "    Metadata:\n",
      "      creation_time   : 2021-08-02T18:46:51.000000Z\n",
      "      handler_name    : Alias Data Handler\n",
      "      encoder         : Lavc57.107.100 libx264\n",
      "    Side data:\n",
      "      cpb: bitrate max/min/avg: 0/0/3000000 buffer size: 0 vbv_delay: -1\n",
      "    Stream #0:1(eng): Audio: aac (LC) (mp4a / 0x6134706D), 44100 Hz, stereo, fltp, 256 kb/s (default)\n",
      "    Metadata:\n",
      "      creation_time   : 2021-08-02T18:46:51.000000Z\n",
      "      handler_name    : Alias Data Handler\n",
      "      encoder         : Lavc57.107.100 aac\n",
      "frame=  500 fps= 46 q=-1.0 Lsize=    7823kB time=00:00:20.01 bitrate=3201.8kbits/s speed=1.82x    \n",
      "video:7282kB audio:524kB subtitle:0kB other streams:0kB global headers:0kB muxing overhead: 0.226570%\n",
      "\u001b[1;36m[libx264 @ 0x55f8ad6e7960] \u001b[0mframe I:4     Avg QP: 6.25  size: 42416\n",
      "\u001b[1;36m[libx264 @ 0x55f8ad6e7960] \u001b[0mframe P:130   Avg QP: 6.58  size: 36262\n",
      "\u001b[1;36m[libx264 @ 0x55f8ad6e7960] \u001b[0mframe B:366   Avg QP:10.11  size:  7027\n",
      "\u001b[1;36m[libx264 @ 0x55f8ad6e7960] \u001b[0mconsecutive B-frames:  2.0%  0.8%  1.2% 96.0%\n",
      "\u001b[1;36m[libx264 @ 0x55f8ad6e7960] \u001b[0mmb I  I16..4: 12.6% 36.3% 51.1%\n",
      "\u001b[1;36m[libx264 @ 0x55f8ad6e7960] \u001b[0mmb P  I16..4:  2.7% 19.6% 14.7%  P16..4: 17.1% 24.0% 20.2%  0.0%  0.0%    skip: 1.7%\n",
      "\u001b[1;36m[libx264 @ 0x55f8ad6e7960] \u001b[0mmb B  I16..4:  0.1%  0.8%  0.5%  B16..8: 36.5% 20.7% 12.5%  direct: 8.9%  skip:19.9%  L0:43.9% L1:40.5% BI:15.6%\n",
      "\u001b[1;36m[libx264 @ 0x55f8ad6e7960] \u001b[0mfinal ratefactor: 7.38\n",
      "\u001b[1;36m[libx264 @ 0x55f8ad6e7960] \u001b[0m8x8 transform intra:52.2% inter:35.3%\n",
      "\u001b[1;36m[libx264 @ 0x55f8ad6e7960] \u001b[0mcoded y,uvDC,uvAC intra: 96.2% 88.9% 86.9% inter: 44.2% 44.1% 23.4%\n",
      "\u001b[1;36m[libx264 @ 0x55f8ad6e7960] \u001b[0mi16 v,h,dc,p: 34% 14% 24% 29%\n",
      "\u001b[1;36m[libx264 @ 0x55f8ad6e7960] \u001b[0mi8 v,h,dc,ddl,ddr,vr,hd,vl,hu: 38% 18% 11%  3%  5%  6%  5%  6%  7%\n",
      "\u001b[1;36m[libx264 @ 0x55f8ad6e7960] \u001b[0mi4 v,h,dc,ddl,ddr,vr,hd,vl,hu: 33% 19% 11%  5%  7%  7%  6%  6%  5%\n",
      "\u001b[1;36m[libx264 @ 0x55f8ad6e7960] \u001b[0mi8c dc,h,v,p: 54% 13% 25%  8%\n",
      "\u001b[1;36m[libx264 @ 0x55f8ad6e7960] \u001b[0mWeighted P-Frames: Y:12.3% UV:9.2%\n",
      "\u001b[1;36m[libx264 @ 0x55f8ad6e7960] \u001b[0mref P L0: 74.6%  9.9% 11.9%  3.4%  0.2%\n",
      "\u001b[1;36m[libx264 @ 0x55f8ad6e7960] \u001b[0mref B L0: 95.7%  3.7%  0.6%\n",
      "\u001b[1;36m[libx264 @ 0x55f8ad6e7960] \u001b[0mref B L1: 98.5%  1.5%\n",
      "\u001b[1;36m[libx264 @ 0x55f8ad6e7960] \u001b[0mkb/s:2982.26\n",
      "\u001b[1;36m[aac @ 0x55f8ad6e8a80] \u001b[0mQavg: 64016.531\n",
      "Video format OK!\n",
      "Video codec OK!\n",
      "Audio codec OK!\n",
      "Frame rate OK!\n",
      "Aspect ratio OK!\n",
      "Resolution OK!\n",
      "Video bit rate not correct\n",
      "Audio bit rate OK!\n",
      "Audio channels OK!\n",
      "-------------------------------\n",
      "Voyage_to_the_Planet_of_Prehistoric_Women.mp4\n",
      "Exercise3_Films_formatOK/Voyage_to_the_Planet_of_Prehistoric_Women_formatOK.mp4\n",
      "Input #0, mov,mp4,m4a,3gp,3g2,mj2, from 'Exercise3_Films/Voyage_to_the_Planet_of_Prehistoric_Women.mp4':\n",
      "  Metadata:\n",
      "    major_brand     : mp42\n",
      "    minor_version   : 0\n",
      "    compatible_brands: mp42mp41\n",
      "    creation_time   : 2021-08-02T19:26:10.000000Z\n",
      "  Duration: 00:00:20.09, start: 0.000000, bitrate: 8337 kb/s\n",
      "    Stream #0:0(eng): Video: hevc (Main) (hvc1 / 0x31637668), yuv420p(tv, bt709), 640x360 [SAR 1:1 DAR 16:9], 8038 kb/s, 29.97 fps, 29.97 tbr, 30k tbn, 29.97 tbc (default)\n",
      "    Metadata:\n",
      "      creation_time   : 2021-08-02T19:26:10.000000Z\n",
      "      handler_name    : Alias Data Handler\n",
      "      encoder         : HEVC Coding\n",
      "    Stream #0:1(eng): Audio: mp3 (mp4a / 0x6134706D), 48000 Hz, stereo, s16p, 320 kb/s (default)\n",
      "    Metadata:\n",
      "      creation_time   : 2021-08-02T19:26:10.000000Z\n",
      "      handler_name    : Alias Data Handler\n",
      "Stream mapping:\n",
      "  Stream #0:0 -> #0:0 (hevc (native) -> h264 (libx264))\n",
      "  Stream #0:1 -> #0:1 (mp3 (native) -> aac (native))\n",
      "Press [q] to stop, [?] for help\n",
      "\u001b[1;36m[libx264 @ 0x5648b94a5600] \u001b[0musing SAR=1/1\n",
      "\u001b[1;36m[libx264 @ 0x5648b94a5600] \u001b[0musing cpu capabilities: MMX2 SSE2Fast SSSE3 SSE4.2 AVX FMA3 BMI2 AVX2 AVX512\n",
      "\u001b[1;36m[libx264 @ 0x5648b94a5600] \u001b[0mprofile High, level 3.0\n",
      "\u001b[1;36m[libx264 @ 0x5648b94a5600] \u001b[0m264 - core 152 r2854 e9a5903 - H.264/MPEG-4 AVC codec - Copyleft 2003-2017 - http://www.videolan.org/x264.html - options: cabac=1 ref=3 deblock=1:0:0 analyse=0x3:0x113 me=hex subme=7 psy=1 psy_rd=1.00:0.00 mixed_ref=1 me_range=16 chroma_me=1 trellis=1 8x8dct=1 cqm=0 deadzone=21,11 fast_pskip=1 chroma_qp_offset=-2 threads=11 lookahead_threads=1 sliced_threads=0 nr=0 decimate=1 interlaced=0 bluray_compat=0 constrained_intra=0 bframes=3 b_pyramid=2 b_adapt=1 b_bias=0 direct=1 weightb=1 open_gop=0 weightp=2 keyint=250 keyint_min=25 scenecut=40 intra_refresh=0 rc_lookahead=40 rc=abr mbtree=1 bitrate=3000 ratetol=1.0 qcomp=0.60 qpmin=0 qpmax=69 qpstep=4 ip_ratio=1.40 aq=1:1.00\n",
      "Output #0, mp4, to 'Exercise3_Films_formatOK/Voyage_to_the_Planet_of_Prehistoric_Women_formatOK.mp4':\n",
      "  Metadata:\n",
      "    major_brand     : mp42\n",
      "    minor_version   : 0\n",
      "    compatible_brands: mp42mp41\n",
      "    encoder         : Lavf57.83.100\n",
      "    Stream #0:0(eng): Video: h264 (libx264) (avc1 / 0x31637661), yuv420p, 640x360 [SAR 1:1 DAR 16:9], q=-1--1, 3000 kb/s, 25 fps, 12800 tbn, 25 tbc (default)\n",
      "    Metadata:\n",
      "      creation_time   : 2021-08-02T19:26:10.000000Z\n",
      "      handler_name    : Alias Data Handler\n",
      "      encoder         : Lavc57.107.100 libx264\n",
      "    Side data:\n",
      "      cpb: bitrate max/min/avg: 0/0/3000000 buffer size: 0 vbv_delay: -1\n",
      "    Stream #0:1(eng): Audio: aac (LC) (mp4a / 0x6134706D), 48000 Hz, stereo, fltp, 256 kb/s (default)\n",
      "    Metadata:\n",
      "      creation_time   : 2021-08-02T19:26:10.000000Z\n",
      "      handler_name    : Alias Data Handler\n",
      "      encoder         : Lavc57.107.100 aac\n",
      "\u001b[0;33mPast duration 0.663322 too large\n",
      "\u001b[0m\u001b[0;33mPast duration 0.829155 too large\n",
      "\u001b[0m\u001b[0;33mPast duration 0.994987 too large\n",
      "frame=  502 fps= 43 q=-1.0 Lsize=    7659kB time=00:00:20.05 bitrate=3128.7kbits/s dup=0 drop=98 speed=1.71x       \n",
      "video:7040kB audio:603kB subtitle:0kB other streams:0kB global headers:0kB muxing overhead: 0.213051%\n",
      "\u001b[1;36m[libx264 @ 0x5648b94a5600] \u001b[0mframe I:5     Avg QP: 5.14  size: 50430\n",
      "\u001b[1;36m[libx264 @ 0x5648b94a5600] \u001b[0mframe P:129   Avg QP: 7.82  size: 32325\n",
      "\u001b[1;36m[libx264 @ 0x5648b94a5600] \u001b[0mframe B:368   Avg QP:11.51  size:  7570\n",
      "\u001b[1;36m[libx264 @ 0x5648b94a5600] \u001b[0mconsecutive B-frames:  2.0%  0.0%  2.4% 95.6%\n",
      "\u001b[1;36m[libx264 @ 0x5648b94a5600] \u001b[0mmb I  I16..4: 18.5% 37.4% 44.1%\n",
      "\u001b[1;36m[libx264 @ 0x5648b94a5600] \u001b[0mmb P  I16..4:  3.7% 19.3%  9.6%  P16..4: 17.8% 21.7% 17.6%  0.0%  0.0%    skip:10.3%\n",
      "\u001b[1;36m[libx264 @ 0x5648b94a5600] \u001b[0mmb B  I16..4:  0.1%  0.9%  0.5%  B16..8: 38.1% 19.5% 10.7%  direct: 7.5%  skip:22.8%  L0:46.4% L1:38.7% BI:14.9%\n",
      "\u001b[1;36m[libx264 @ 0x5648b94a5600] \u001b[0mfinal ratefactor: 8.83\n",
      "\u001b[1;36m[libx264 @ 0x5648b94a5600] \u001b[0m8x8 transform intra:57.1% inter:46.2%\n",
      "\u001b[1;36m[libx264 @ 0x5648b94a5600] \u001b[0mcoded y,uvDC,uvAC intra: 86.4% 95.1% 94.9% inter: 36.2% 57.1% 32.0%\n",
      "\u001b[1;36m[libx264 @ 0x5648b94a5600] \u001b[0mi16 v,h,dc,p: 59% 13% 11% 17%\n",
      "\u001b[1;36m[libx264 @ 0x5648b94a5600] \u001b[0mi8 v,h,dc,ddl,ddr,vr,hd,vl,hu: 26% 17% 17%  5%  6%  7%  6%  8%  8%\n",
      "\u001b[1;36m[libx264 @ 0x5648b94a5600] \u001b[0mi4 v,h,dc,ddl,ddr,vr,hd,vl,hu: 28% 17% 13%  6%  9%  8%  6%  8%  6%\n",
      "\u001b[1;36m[libx264 @ 0x5648b94a5600] \u001b[0mi8c dc,h,v,p: 49% 15% 23% 13%\n",
      "\u001b[1;36m[libx264 @ 0x5648b94a5600] \u001b[0mWeighted P-Frames: Y:14.7% UV:10.9%\n",
      "\u001b[1;36m[libx264 @ 0x5648b94a5600] \u001b[0mref P L0: 67.8% 14.0% 13.1%  4.4%  0.6%\n",
      "\u001b[1;36m[libx264 @ 0x5648b94a5600] \u001b[0mref B L0: 94.7%  4.6%  0.7%\n",
      "\u001b[1;36m[libx264 @ 0x5648b94a5600] \u001b[0mref B L1: 98.2%  1.8%\n",
      "\u001b[1;36m[libx264 @ 0x5648b94a5600] \u001b[0mkb/s:2871.63\n",
      "\u001b[1;36m[aac @ 0x5648b94e36e0] \u001b[0mQavg: 54949.371\n",
      "Video format OK!\n",
      "Video codec not correct\n",
      "Audio codec not correct\n",
      "Frame rate not correct\n",
      "Aspect ratio OK!\n",
      "Resolution OK!\n",
      "Video bit rate not correct\n",
      "Audio bit rate not correct\n",
      "Audio channels OK!\n",
      "-------------------------------\n",
      "The_Gun_and_the_Pulpit.av\n",
      "Exercise3_Films_formatOK/The_Gun_and_the_Pulpit_formatOK.mp4\n",
      "\u001b[0;33mGuessed Channel Layout for Input Stream #0.1 : stereo\n",
      "\u001b[0mInput #0, avi, from 'Exercise3_Films/The_Gun_and_the_Pulpit.avi':\n",
      "  Duration: 00:00:20.00, start: 0.000000, bitrate: 88809 kb/s\n",
      "    Stream #0:0: Video: rawvideo (IYUV / 0x56555949), yuv420p, 720x404, 87438 kb/s, 25 fps, 25 tbr, 25 tbn, 25 tbc\n",
      "    Stream #0:1: Audio: pcm_s16le ([1][0][0][0] / 0x0001), 48000 Hz, stereo, s16, 1536 kb/s\n",
      "Stream mapping:\n",
      "  Stream #0:0 -> #0:0 (rawvideo (native) -> h264 (libx264))\n",
      "  Stream #0:1 -> #0:1 (pcm_s16le (native) -> aac (native))\n",
      "Press [q] to stop, [?] for help\n",
      "\u001b[1;34m[swscaler @ 0x559325a26bc0] \u001b[0m\u001b[0;33mWarning: data is not aligned! This can lead to a speed loss\n",
      "\u001b[0m\u001b[1;36m[libx264 @ 0x559325a16100] \u001b[0musing SAR=1/1\n",
      "\u001b[1;36m[libx264 @ 0x559325a16100] \u001b[0musing cpu capabilities: MMX2 SSE2Fast SSSE3 SSE4.2 AVX FMA3 BMI2 AVX2 AVX512\n",
      "\u001b[1;36m[libx264 @ 0x559325a16100] \u001b[0mprofile High, level 3.0\n",
      "\u001b[1;36m[libx264 @ 0x559325a16100] \u001b[0m264 - core 152 r2854 e9a5903 - H.264/MPEG-4 AVC codec - Copyleft 2003-2017 - http://www.videolan.org/x264.html - options: cabac=1 ref=3 deblock=1:0:0 analyse=0x3:0x113 me=hex subme=7 psy=1 psy_rd=1.00:0.00 mixed_ref=1 me_range=16 chroma_me=1 trellis=1 8x8dct=1 cqm=0 deadzone=21,11 fast_pskip=1 chroma_qp_offset=-2 threads=11 lookahead_threads=1 sliced_threads=0 nr=0 decimate=1 interlaced=0 bluray_compat=0 constrained_intra=0 bframes=3 b_pyramid=2 b_adapt=1 b_bias=0 direct=1 weightb=1 open_gop=0 weightp=2 keyint=250 keyint_min=25 scenecut=40 intra_refresh=0 rc_lookahead=40 rc=abr mbtree=1 bitrate=3000 ratetol=1.0 qcomp=0.60 qpmin=0 qpmax=69 qpstep=4 ip_ratio=1.40 aq=1:1.00\n",
      "Output #0, mp4, to 'Exercise3_Films_formatOK/The_Gun_and_the_Pulpit_formatOK.mp4':\n",
      "  Metadata:\n",
      "    encoder         : Lavf57.83.100\n",
      "    Stream #0:0: Video: h264 (libx264) (avc1 / 0x31637661), yuv420p(progressive), 640x360 [SAR 1:1 DAR 16:9], q=-1--1, 3000 kb/s, 25 fps, 12800 tbn, 25 tbc\n",
      "    Metadata:\n",
      "      encoder         : Lavc57.107.100 libx264\n",
      "    Side data:\n",
      "      cpb: bitrate max/min/avg: 0/0/3000000 buffer size: 0 vbv_delay: -1\n",
      "    Stream #0:1: Audio: aac (LC) (mp4a / 0x6134706D), 48000 Hz, stereo, fltp, 256 kb/s\n",
      "    Metadata:\n",
      "      encoder         : Lavc57.107.100 aac\n",
      "frame=  500 fps= 52 q=-1.0 Lsize=    7741kB time=00:00:20.01 bitrate=3168.9kbits/s speed=2.09x    \n",
      "video:7111kB audio:614kB subtitle:0kB other streams:0kB global headers:0kB muxing overhead: 0.206734%\n",
      "\u001b[1;36m[libx264 @ 0x559325a16100] \u001b[0mframe I:17    Avg QP: 9.72  size: 34976\n",
      "\u001b[1;36m[libx264 @ 0x559325a16100] \u001b[0mframe P:156   Avg QP:12.03  size: 23448\n",
      "\u001b[1;36m[libx264 @ 0x559325a16100] \u001b[0mframe B:327   Avg QP:14.31  size:  9260\n",
      "\u001b[1;36m[libx264 @ 0x559325a16100] \u001b[0mconsecutive B-frames: 10.0%  5.6%  8.4% 76.0%\n",
      "\u001b[1;36m[libx264 @ 0x559325a16100] \u001b[0mmb I  I16..4:  9.7% 44.0% 46.3%\n",
      "\u001b[1;36m[libx264 @ 0x559325a16100] \u001b[0mmb P  I16..4:  3.0% 31.6% 16.9%  P16..4: 14.3% 19.5% 12.5%  0.0%  0.0%    skip: 2.2%\n",
      "\u001b[1;36m[libx264 @ 0x559325a16100] \u001b[0mmb B  I16..4:  0.5%  6.5%  4.7%  B16..8: 31.7% 24.4%  9.9%  direct: 6.2%  skip:16.0%  L0:48.2% L1:37.8% BI:14.0%\n",
      "\u001b[1;36m[libx264 @ 0x559325a16100] \u001b[0mfinal ratefactor: 9.90\n",
      "\u001b[1;36m[libx264 @ 0x559325a16100] \u001b[0m8x8 transform intra:57.5% inter:48.6%\n",
      "\u001b[1;36m[libx264 @ 0x559325a16100] \u001b[0mcoded y,uvDC,uvAC intra: 89.6% 92.1% 80.8% inter: 45.0% 37.9% 15.7%\n",
      "\u001b[1;36m[libx264 @ 0x559325a16100] \u001b[0mi16 v,h,dc,p: 66% 11%  8% 15%\n",
      "\u001b[1;36m[libx264 @ 0x559325a16100] \u001b[0mi8 v,h,dc,ddl,ddr,vr,hd,vl,hu: 38% 22%  9%  3%  5%  6%  5%  6%  6%\n",
      "\u001b[1;36m[libx264 @ 0x559325a16100] \u001b[0mi4 v,h,dc,ddl,ddr,vr,hd,vl,hu: 37% 23%  7%  4%  6%  6%  7%  5%  5%\n",
      "\u001b[1;36m[libx264 @ 0x559325a16100] \u001b[0mi8c dc,h,v,p: 49% 16% 28%  7%\n",
      "\u001b[1;36m[libx264 @ 0x559325a16100] \u001b[0mWeighted P-Frames: Y:4.5% UV:1.9%\n",
      "\u001b[1;36m[libx264 @ 0x559325a16100] \u001b[0mref P L0: 74.0% 10.9% 11.9%  3.3%  0.0%\n",
      "\u001b[1;36m[libx264 @ 0x559325a16100] \u001b[0mref B L0: 94.9%  4.4%  0.7%\n",
      "\u001b[1;36m[libx264 @ 0x559325a16100] \u001b[0mref B L1: 98.4%  1.6%\n",
      "\u001b[1;36m[libx264 @ 0x559325a16100] \u001b[0mkb/s:2912.19\n",
      "\u001b[1;36m[aac @ 0x559325a194c0] \u001b[0mQavg: 20476.783\n",
      "Video format not correct\n",
      "Video codec not correct\n",
      "Audio codec not correct\n",
      "Frame rate OK!\n",
      "Aspect ratio not correct\n",
      "Resolution not correct\n",
      "Video bit rate not correct\n",
      "Audio bit rate not correct\n",
      "Audio channels OK!\n",
      "-------------------------------\n"
     ]
    }
   ],
   "source": [
    "import os\n",
    "\n",
    "textfile = open(\"report.txt\", \"w\")\n",
    "textfile.write(\"-------------------------------\" + \"\\n\")\n",
    "directory = 'Exercise3_Films'\n",
    "for filename in os.listdir(directory):\n",
    "    filepath = os.path.join(directory, filename)\n",
    "    # checking if it is a file\n",
    "    if os.path.isfile(filepath):\n",
    "        # getting just the file\n",
    "        purefile = filepath.strip(\"Exercise3_Films/\")\n",
    "        print(purefile)\n",
    "        # probing the file for all digital formats\n",
    "        op = !ffprobe -hide_banner $filepath\n",
    "        # converting the file\n",
    "        convert(filepath)\n",
    "        # writing to TXT file\n",
    "        textfile.write(purefile + \"\\n\" + \"-------------------------------\" + \"\\n\")\n",
    "        testing(purefile, op, textfile)\n",
    "        print(\"-------------------------------\")\n",
    "# closing the file\n",
    "textfile.close()"
   ]
  },
  {
   "cell_type": "markdown",
   "metadata": {},
   "source": [
    "# Final result"
   ]
  },
  {
   "cell_type": "markdown",
   "metadata": {},
   "source": [
    "The final report is saved in the TXT file final.txt, which sllows the user to make sure that the digital format after conversion is correct."
   ]
  },
  {
   "cell_type": "code",
   "execution_count": 4,
   "metadata": {},
   "outputs": [
    {
     "name": "stdout",
     "output_type": "stream",
     "text": [
      "Cosmos_War_of_the_Planets_formatOK.mp4\n",
      "Video format OK!\n",
      "Video codec OK!\n",
      "Audio codec OK!\n",
      "Frame rate OK!\n",
      "Aspect ratio OK!\n",
      "Resolution OK!\n",
      "Video bit rate OK!\n",
      "Audio bit rate OK!\n",
      "Audio channels OK!\n",
      "-------------------------------\n",
      "Last_man_on_earth_1964_formatOK.mp4\n",
      "Video format OK!\n",
      "Video codec OK!\n",
      "Audio codec OK!\n",
      "Frame rate OK!\n",
      "Aspect ratio OK!\n",
      "Resolution OK!\n",
      "Video bit rate OK!\n",
      "Audio bit rate OK!\n",
      "Audio channels OK!\n",
      "-------------------------------\n",
      "The_Gun_and_the_Pulpit_formatOK.mp4\n",
      "Video format OK!\n",
      "Video codec OK!\n",
      "Audio codec OK!\n",
      "Frame rate OK!\n",
      "Aspect ratio OK!\n",
      "Resolution OK!\n",
      "Video bit rate OK!\n",
      "Audio bit rate OK!\n",
      "Audio channels OK!\n",
      "-------------------------------\n",
      "Voyage_to_the_Planet_of_Prehistoric_Women_formatOK.mp4\n",
      "Video format OK!\n",
      "Video codec OK!\n",
      "Audio codec OK!\n",
      "Frame rate OK!\n",
      "Aspect ratio OK!\n",
      "Resolution OK!\n",
      "Video bit rate OK!\n",
      "Audio bit rate OK!\n",
      "Audio channels OK!\n",
      "-------------------------------\n",
      "The_Hill_Gang_Rides_Again_formatOK.mp4\n",
      "Video format OK!\n",
      "Video codec OK!\n",
      "Audio codec OK!\n",
      "Frame rate OK!\n",
      "Aspect ratio OK!\n",
      "Resolution OK!\n",
      "Video bit rate OK!\n",
      "Audio bit rate OK!\n",
      "Audio channels OK!\n",
      "-------------------------------\n"
     ]
    }
   ],
   "source": [
    "import os\n",
    "\n",
    "textfile = open(\"final.txt\", \"w\")\n",
    "textfile.write(\"-------------------------------\" + \"\\n\")\n",
    "directory = 'Exercise3_Films_formatOK'\n",
    "for filename in os.listdir(directory):\n",
    "    filepath = os.path.join(directory, filename)\n",
    "    # checking if it is a file\n",
    "    if os.path.isfile(filepath):\n",
    "        purefile = filepath.strip(\"Exercise3_Films_formatOK/\")\n",
    "        print(purefile)\n",
    "        op = !ffprobe -hide_banner $filepath\n",
    "        textfile.write(purefile + \"\\n\" + \"-------------------------------\" + \"\\n\")\n",
    "        testing(purefile, op, textfile)\n",
    "        print(\"-------------------------------\")\n",
    "textfile.close()"
   ]
  }
 ],
 "metadata": {
  "kernelspec": {
   "display_name": "Python 3",
   "language": "python",
   "name": "python3"
  },
  "language_info": {
   "codemirror_mode": {
    "name": "ipython",
    "version": 3
   },
   "file_extension": ".py",
   "mimetype": "text/x-python",
   "name": "python",
   "nbconvert_exporter": "python",
   "pygments_lexer": "ipython3",
   "version": "3.7.6"
  }
 },
 "nbformat": 4,
 "nbformat_minor": 4
}
